<?xml version="1.0" standalone="no"?>
<!DOCTYPE svg PUBLIC "-//W3C//DTD SVG 20010904//EN"
 "http://www.w3.org/TR/2001/REC-SVG-20010904/DTD/svg10.dtd">
<svg version="1.0" xmlns="http://www.w3.org/2000/svg"
 width="300.000000pt" height="245.000000pt" viewBox="0 0 300.000000 245.000000"
 preserveAspectRatio="xMidYMid meet">
<metadata>
Created by potrace 1.10, written by Peter Selinger 2001-2011
</metadata>
<g transform="translate(0.000000,245.000000) scale(0.100000,-0.100000)"
fill="#000000" stroke="none">
<path d="M20 1988 c0 -2 -1 -353 -3 -781 l-2 -777 57 0 c47 0 56 3 52 15 -4 8
-18 15 -33 15 -15 0 -32 5 -39 12 -9 9 -12 186 -12 734 0 397 3 729 6 738 3 9
18 16 33 16 29 0 58 15 45 22 -10 5 -104 11 -104 6z"/>
<path d="M140 1215 l0 -774 161 -3 162 -3 -6 360 c-4 198 -9 383 -11 410 -3
28 -8 121 -12 208 -3 86 -10 160 -16 163 -5 4 -7 -100 -3 -273 14 -745 15
-806 4 -820 -8 -9 -42 -13 -125 -13 -110 0 -114 1 -119 23 -3 12 -4 344 -3
737 l3 715 160 3 c88 1 169 0 181 -2 23 -6 17 10 215 -550 66 -186 126 -348
134 -360 7 -11 26 -52 41 -91 27 -70 44 -100 44 -78 0 7 -82 243 -181 525
-100 282 -188 532 -196 556 l-15 42 -209 0 -209 0 0 -775z"/>
<path d="M1207 1948 c-8 -24 -38 -108 -66 -188 -28 -80 -93 -264 -145 -410
-51 -146 -91 -269 -89 -273 13 -22 38 36 122 278 223 637 206 597 259 608 59
12 52 27 -12 27 l-54 0 -15 -42z"/>
<path d="M1346 1978 c-2 -7 -87 -251 -189 -543 -220 -631 -205 -584 -183 -566
9 7 16 22 16 32 0 11 4 19 9 19 5 0 11 12 14 28 7 43 103 313 108 307 3 -2 11
19 18 48 7 28 16 61 20 72 4 11 13 36 20 55 48 145 85 246 91 250 4 3 15 32
25 65 37 126 58 180 73 193 11 8 65 12 188 12 146 0 173 -2 178 -16 3 -8 5
-334 5 -725 -1 -617 -3 -711 -16 -724 -11 -12 -38 -15 -119 -14 -57 1 -104 6
-104 10 0 5 -7 6 -16 2 -14 -5 -15 21 -11 263 2 148 7 312 10 364 12 177 17
475 8 460 -12 -20 -41 -696 -41 -937 l0 -192 160 -3 160 -3 0 778 0 777 -210
0 c-160 0 -211 -3 -214 -12z"/>
<path d="M2538 1403 c-3 -556 -4 -590 -22 -623 -10 -19 -32 -47 -49 -62 -19
-19 -24 -28 -14 -28 24 0 73 46 93 87 18 35 19 77 24 608 5 560 5 570 25 573
82 12 82 32 0 32 l-54 0 -3 -587z"/>
<path d="M2670 1419 c0 -419 -3 -582 -12 -612 -16 -54 -73 -112 -124 -127 -53
-16 -139 -6 -183 21 -36 22 -66 80 -76 149 l-7 45 -224 3 -224 4 0 -34 c0 -57
27 -163 55 -218 33 -64 103 -135 171 -172 57 -31 153 -58 199 -57 23 0 15 5
-33 18 -142 41 -262 127 -310 225 -12 24 -30 73 -38 110 -19 73 -11 96 32 96
12 0 26 5 29 10 14 22 24 7 31 -47 15 -128 63 -227 142 -300 36 -32 125 -77
191 -97 70 -21 265 -21 340 -1 186 49 316 187 350 370 7 38 11 257 11 622 l0
563 -160 0 -160 0 0 -571z m280 511 c7 -13 9 -200 8 -567 l-3 -548 -27 -66
c-38 -95 -71 -144 -131 -190 -109 -84 -236 -116 -419 -105 -118 7 -148 13
-126 27 9 6 5 9 -14 9 -31 0 -78 19 -78 31 0 5 -8 6 -17 2 -10 -3 -15 -3 -11
2 7 7 -11 29 -74 94 -15 15 -37 48 -48 73 -23 54 -39 165 -22 154 7 -4 12 -3
12 3 0 6 45 10 109 10 124 1 134 -4 144 -66 8 -50 66 -118 114 -134 50 -16
184 -5 220 18 49 31 68 57 86 114 15 50 17 111 17 602 0 427 3 546 13 550 6 3
62 6 124 6 102 1 113 -1 123 -19z"/>
<path d="M440 1579 c0 -9 86 -254 191 -545 105 -291 196 -544 201 -562 l9 -32
113 0 113 0 98 273 c229 636 305 850 305 859 0 5 -4 6 -10 3 -5 -3 -10 -15
-10 -26 0 -10 -4 -19 -9 -19 -4 0 -27 -57 -51 -127 -23 -71 -46 -132 -51 -137
-5 -6 -9 -18 -9 -27 0 -10 -7 -25 -16 -33 -8 -9 -12 -16 -8 -16 3 0 2 -6 -4
-12 -5 -7 -55 -139 -111 -293 -167 -460 -139 -410 -229 -411 -40 -1 -75 3 -78
7 -2 4 -10 6 -17 3 -13 -5 -28 26 -47 99 -7 26 -17 47 -21 47 -5 0 -7 11 -5
25 3 14 1 23 -4 20 -5 -3 -11 5 -15 17 -3 13 -10 32 -15 43 -22 50 -70 193
-70 208 0 9 -4 19 -10 22 -5 3 -10 15 -10 26 0 10 -9 39 -21 64 -11 24 -17 49
-13 56 4 7 3 9 -4 5 -7 -4 -15 6 -21 26 -5 18 -24 71 -41 118 -18 47 -35 96
-37 110 -3 14 -9 30 -13 35 -4 6 -13 31 -20 58 -7 26 -17 47 -21 47 -5 0 -9 8
-9 18 -1 23 -29 73 -30 51z"/>
<path d="M478 1110 c2 -16 57 -174 121 -352 l116 -323 59 -3 c53 -3 58 -1 46
12 -7 9 -22 16 -34 16 -12 0 -30 6 -39 13 -10 7 -63 137 -121 297 -113 314
-130 355 -143 363 -5 3 -7 -7 -5 -23z"/>
<path d="M1331 1110 c0 -14 -3 -172 -7 -352 l-7 -328 57 0 c66 0 78 21 19 36
l-38 9 0 310 c-1 210 -4 316 -12 330 -11 18 -11 18 -12 -5z"/>
</g>
</svg>
